<mxfile host="app.diagrams.net" agent="Mozilla/5.0 (Windows NT 10.0; Win64; x64) AppleWebKit/537.36 (KHTML, like Gecko) Chrome/129.0.0.0 Safari/537.36 Edg/129.0.0.0" version="24.7.17">
  <diagram name="第 1 页" id="MnPvbFZmLSCmibyHQgyS">
    <mxGraphModel dx="533" dy="927" grid="1" gridSize="10" guides="1" tooltips="1" connect="1" arrows="1" fold="1" page="1" pageScale="1" pageWidth="827" pageHeight="1169" math="0" shadow="0">
      <root>
        <mxCell id="0" />
        <mxCell id="1" parent="0" />
        <mxCell id="M2-GrQPkXwUdI-zRppql-27" value="&lt;p class=&quot;MsoNormal&quot;&gt;&lt;span style=&quot;font-family: &amp;quot;Comic Sans MS&amp;quot;; font-size: 14px;&quot;&gt;As a sports enthusiast&lt;/span&gt;&lt;br&gt;&lt;/p&gt;" style="rounded=1;whiteSpace=wrap;html=1;fillColor=#dae8fc;strokeColor=#6c8ebf;" parent="1" vertex="1">
          <mxGeometry x="871" y="355" width="160" height="60" as="geometry" />
        </mxCell>
        <mxCell id="M2-GrQPkXwUdI-zRppql-28" value="&lt;p class=&quot;MsoNormal&quot;&gt;&lt;span style=&quot;font-size: 10.5pt;&quot;&gt;&lt;font face=&quot;Comic Sans MS&quot;&gt;As an Uploader&lt;/font&gt;&lt;/span&gt;&lt;/p&gt;" style="rounded=1;whiteSpace=wrap;html=1;fillColor=#dae8fc;strokeColor=#6c8ebf;" parent="1" vertex="1">
          <mxGeometry x="871" y="435" width="160" height="60" as="geometry" />
        </mxCell>
        <mxCell id="M2-GrQPkXwUdI-zRppql-29" value="&lt;font style=&quot;font-size: 14px;&quot; face=&quot;Comic Sans MS&quot;&gt;As a fitness enthusiast&lt;/font&gt;" style="rounded=1;whiteSpace=wrap;html=1;fillColor=#dae8fc;strokeColor=#6c8ebf;" parent="1" vertex="1">
          <mxGeometry x="871" y="595" width="160" height="60" as="geometry" />
        </mxCell>
        <mxCell id="M2-GrQPkXwUdI-zRppql-30" value="&lt;font style=&quot;font-size: 14px;&quot; face=&quot;Comic Sans MS&quot;&gt;As a junior sports enthusiast&lt;/font&gt;" style="rounded=1;whiteSpace=wrap;html=1;fillColor=#dae8fc;strokeColor=#6c8ebf;" parent="1" vertex="1">
          <mxGeometry x="871" y="515" width="160" height="60" as="geometry" />
        </mxCell>
        <mxCell id="M2-GrQPkXwUdI-zRppql-31" value="&lt;font face=&quot;Comic Sans MS&quot; style=&quot;font-size: 14px;&quot;&gt;As a fitness novice&lt;/font&gt;" style="rounded=1;whiteSpace=wrap;html=1;fillColor=#dae8fc;strokeColor=#6c8ebf;" parent="1" vertex="1">
          <mxGeometry x="871" y="755" width="160" height="60" as="geometry" />
        </mxCell>
        <mxCell id="M2-GrQPkXwUdI-zRppql-32" value="As a fitness novice" style="rounded=1;whiteSpace=wrap;html=1;fillColor=#dae8fc;strokeColor=#6c8ebf;fontSize=14;fontFamily=Comic Sans MS;" parent="1" vertex="1">
          <mxGeometry x="871" y="835" width="160" height="60" as="geometry" />
        </mxCell>
        <mxCell id="M2-GrQPkXwUdI-zRppql-33" value="&lt;font style=&quot;font-size: 14px;&quot; face=&quot;Comic Sans MS&quot;&gt;As a physical education teacher&lt;/font&gt;" style="rounded=1;whiteSpace=wrap;html=1;fillColor=#dae8fc;strokeColor=#6c8ebf;" parent="1" vertex="1">
          <mxGeometry x="871" y="675" width="160" height="60" as="geometry" />
        </mxCell>
        <mxCell id="M2-GrQPkXwUdI-zRppql-34" value="As a beginner in fitness" style="rounded=1;whiteSpace=wrap;html=1;fillColor=#dae8fc;strokeColor=#6c8ebf;fontSize=14;fontFamily=Comic Sans MS;" parent="1" vertex="1">
          <mxGeometry x="871" y="917" width="160" height="60" as="geometry" />
        </mxCell>
        <mxCell id="M2-GrQPkXwUdI-zRppql-35" value="&lt;p class=&quot;MsoNormal&quot;&gt;&lt;span style=&quot;font-size: 10.5pt;&quot;&gt;&lt;font face=&quot;Comic Sans MS&quot;&gt;I want to find a software to help me plan&lt;/font&gt;&lt;/span&gt;&lt;/p&gt;" style="rounded=1;whiteSpace=wrap;html=1;fillColor=#fff2cc;strokeColor=#d6b656;" parent="1" vertex="1">
          <mxGeometry x="1061" y="355" width="160" height="60" as="geometry" />
        </mxCell>
        <mxCell id="M2-GrQPkXwUdI-zRppql-36" value="&lt;p class=&quot;MsoNormal&quot;&gt;&lt;span style=&quot;font-size: 10.5pt;&quot;&gt;&lt;font face=&quot;Comic Sans MS&quot;&gt;I want to let more people know about the tutorials I share&lt;/font&gt;&lt;/span&gt;&lt;/p&gt;" style="rounded=1;whiteSpace=wrap;html=1;fillColor=#fff2cc;strokeColor=#d6b656;" parent="1" vertex="1">
          <mxGeometry x="1061" y="435" width="160" height="60" as="geometry" />
        </mxCell>
        <mxCell id="M2-GrQPkXwUdI-zRppql-37" value="&lt;font style=&quot;font-size: 14px;&quot; face=&quot;Comic Sans MS&quot;&gt;&amp;nbsp;I want to keep track of what I eat and get AI recommendations&lt;/font&gt;" style="rounded=1;whiteSpace=wrap;html=1;fillColor=#fff2cc;strokeColor=#d6b656;" parent="1" vertex="1">
          <mxGeometry x="1061" y="595" width="160" height="60" as="geometry" />
        </mxCell>
        <mxCell id="M2-GrQPkXwUdI-zRppql-38" value="&lt;font style=&quot;font-size: 14px;&quot; face=&quot;Comic Sans MS&quot;&gt;I want to get a scientific and reasonable diet plan&lt;/font&gt;" style="rounded=1;whiteSpace=wrap;html=1;fillColor=#fff2cc;strokeColor=#d6b656;" parent="1" vertex="1">
          <mxGeometry x="1061" y="515" width="160" height="60" as="geometry" />
        </mxCell>
        <mxCell id="M2-GrQPkXwUdI-zRppql-39" value="&lt;font face=&quot;Comic Sans MS&quot; style=&quot;font-size: 14px;&quot;&gt;I want to quickly know the functions of the website&lt;/font&gt;" style="rounded=1;whiteSpace=wrap;html=1;fillColor=#fff2cc;strokeColor=#d6b656;" parent="1" vertex="1">
          <mxGeometry x="1061" y="755" width="160" height="60" as="geometry" />
        </mxCell>
        <mxCell id="M2-GrQPkXwUdI-zRppql-40" value="I wanted to receive intelligent fitness movement guidance" style="rounded=1;whiteSpace=wrap;html=1;fillColor=#fff2cc;strokeColor=#d6b656;fontSize=14;fontFamily=Comic Sans MS;" parent="1" vertex="1">
          <mxGeometry x="1061" y="835" width="160" height="60" as="geometry" />
        </mxCell>
        <mxCell id="M2-GrQPkXwUdI-zRppql-41" value="&lt;font style=&quot;font-size: 14px;&quot; face=&quot;Comic Sans MS&quot;&gt;I want to guide students to exercise on their own&lt;/font&gt;" style="rounded=1;whiteSpace=wrap;html=1;fillColor=#fff2cc;strokeColor=#d6b656;" parent="1" vertex="1">
          <mxGeometry x="1061" y="675" width="160" height="60" as="geometry" />
        </mxCell>
        <mxCell id="M2-GrQPkXwUdI-zRppql-42" value="I wanted to have understanding of how to use sports equipment" style="rounded=1;whiteSpace=wrap;html=1;fillColor=#fff2cc;strokeColor=#d6b656;fontSize=14;fontFamily=Comic Sans MS;" parent="1" vertex="1">
          <mxGeometry x="1061" y="917" width="160" height="60" as="geometry" />
        </mxCell>
        <mxCell id="M2-GrQPkXwUdI-zRppql-43" value="&lt;p class=&quot;MsoNormal&quot;&gt;&lt;span style=&quot;font-size: 10.5pt;&quot;&gt;&lt;font face=&quot;Comic Sans MS&quot;&gt;So that I can finish my fitness schedule on time.&amp;nbsp;&lt;/font&gt;&lt;/span&gt;&lt;span style=&quot;mso-spacerun:&#39;yes&#39;;font-family:Calibri;mso-fareast-font-family:宋体;&lt;br/&gt;mso-bidi-font-family:&#39;Times New Roman&#39;;font-size:10.5000pt;mso-font-kerning:1.0000pt;&quot;&gt;&lt;/span&gt;&lt;/p&gt;" style="rounded=1;whiteSpace=wrap;html=1;fillColor=#d5e8d4;strokeColor=#82b366;" parent="1" vertex="1">
          <mxGeometry x="1252" y="355" width="157" height="60" as="geometry" />
        </mxCell>
        <mxCell id="M2-GrQPkXwUdI-zRppql-44" value="&lt;p class=&quot;MsoNormal&quot;&gt;&lt;span style=&quot;font-size: 10.5pt;&quot;&gt;&lt;font face=&quot;Comic Sans MS&quot;&gt;So that I can make money by selling the tutorials&lt;/font&gt;&lt;/span&gt;&lt;span style=&quot;mso-spacerun:&#39;yes&#39;;font-family:Calibri;mso-fareast-font-family:宋体;&lt;br/&gt;mso-bidi-font-family:&#39;Times New Roman&#39;;font-size:10.5000pt;mso-font-kerning:1.0000pt;&quot;&gt;&lt;/span&gt;&lt;/p&gt;" style="rounded=1;whiteSpace=wrap;html=1;fillColor=#d5e8d4;strokeColor=#82b366;" parent="1" vertex="1">
          <mxGeometry x="1252" y="435" width="157" height="60" as="geometry" />
        </mxCell>
        <mxCell id="M2-GrQPkXwUdI-zRppql-45" value="&lt;font style=&quot;font-size: 14px;&quot; face=&quot;Comic Sans MS&quot;&gt;So that I can adjust accordingly.&lt;/font&gt;" style="rounded=1;whiteSpace=wrap;html=1;fillColor=#d5e8d4;strokeColor=#82b366;" parent="1" vertex="1">
          <mxGeometry x="1252" y="595" width="157" height="60" as="geometry" />
        </mxCell>
        <mxCell id="M2-GrQPkXwUdI-zRppql-46" value="&lt;font style=&quot;font-size: 14px;&quot; face=&quot;Comic Sans MS&quot;&gt;So that I can follow fitness tutorials and work out better.&lt;/font&gt;" style="rounded=1;whiteSpace=wrap;html=1;fillColor=#d5e8d4;strokeColor=#82b366;" parent="1" vertex="1">
          <mxGeometry x="1252" y="515" width="157" height="60" as="geometry" />
        </mxCell>
        <mxCell id="M2-GrQPkXwUdI-zRppql-47" value="&lt;font face=&quot;Comic Sans MS&quot; style=&quot;font-size: 14px;&quot;&gt;So that I can quickly judge whether this is the website I need.&lt;/font&gt;" style="rounded=1;whiteSpace=wrap;html=1;fillColor=#d5e8d4;strokeColor=#82b366;" parent="1" vertex="1">
          <mxGeometry x="1252" y="755" width="157" height="60" as="geometry" />
        </mxCell>
        <mxCell id="M2-GrQPkXwUdI-zRppql-48" value="So that I didn&#39;t need to seek guidance from a fitness coach offline" style="rounded=1;whiteSpace=wrap;html=1;fillColor=#d5e8d4;strokeColor=#82b366;fontSize=14;fontFamily=Comic Sans MS;" parent="1" vertex="1">
          <mxGeometry x="1252" y="835" width="157" height="60" as="geometry" />
        </mxCell>
        <mxCell id="M2-GrQPkXwUdI-zRppql-49" value="&lt;font face=&quot;Comic Sans MS&quot; style=&quot;font-size: 14px;&quot;&gt;So that they can exercise correctly at home.&lt;/font&gt;" style="rounded=1;whiteSpace=wrap;html=1;fillColor=#d5e8d4;strokeColor=#82b366;" parent="1" vertex="1">
          <mxGeometry x="1252" y="675" width="157" height="60" as="geometry" />
        </mxCell>
        <mxCell id="M2-GrQPkXwUdI-zRppql-50" value="So that I could use it safely and efficiently" style="rounded=1;whiteSpace=wrap;html=1;fillColor=#d5e8d4;strokeColor=#82b366;fontSize=14;fontFamily=Comic Sans MS;" parent="1" vertex="1">
          <mxGeometry x="1252" y="917" width="157" height="60" as="geometry" />
        </mxCell>
        <mxCell id="M2-GrQPkXwUdI-zRppql-51" value="&lt;span style=&quot;color: rgb(0, 0, 0); font-family: &amp;quot;Comic Sans MS&amp;quot;; font-style: normal; font-variant-ligatures: normal; font-variant-caps: normal; letter-spacing: normal; orphans: 2; text-align: center; text-indent: 0px; text-transform: none; widows: 2; word-spacing: 0px; -webkit-text-stroke-width: 0px; white-space: normal; text-decoration-thickness: initial; text-decoration-style: initial; text-decoration-color: initial; float: none; display: inline !important;&quot;&gt;&lt;b style=&quot;&quot;&gt;&lt;font style=&quot;font-size: 16px;&quot;&gt;User Stories&lt;/font&gt;&lt;/b&gt;&lt;/span&gt;" style="text;whiteSpace=wrap;html=1;" parent="1" vertex="1">
          <mxGeometry x="1092" y="263" width="180" height="40" as="geometry" />
        </mxCell>
        <mxCell id="M2-GrQPkXwUdI-zRppql-52" value="&lt;p class=&quot;MsoNormal&quot;&gt;&lt;span style=&quot;font-family: &amp;quot;Comic Sans MS&amp;quot;; font-size: 14px;&quot;&gt;As a&lt;/span&gt;&lt;span style=&quot;font-family: 宋体; background-color: initial;&quot;&gt;&lt;font style=&quot;font-size: 8px;&quot;&gt;··&lt;/font&gt;&lt;/span&gt;&lt;span style=&quot;font-family: 宋体; font-size: 8px; background-color: initial;&quot;&gt;···&lt;/span&gt;&lt;span style=&quot;font-size: 8px; background-color: initial; font-family: 宋体;&quot;&gt;·&lt;/span&gt;&lt;/p&gt;&lt;p class=&quot;MsoNormal&quot;&gt;&lt;span style=&quot;mso-spacerun:&#39;yes&#39;;font-family:Calibri;mso-fareast-font-family:宋体;&lt;br/&gt;mso-bidi-font-family:&#39;Times New Roman&#39;;font-size:10.5000pt;mso-font-kerning:1.0000pt;&quot;&gt;&lt;/span&gt;&lt;/p&gt;" style="rounded=1;whiteSpace=wrap;html=1;fillColor=#dae8fc;strokeColor=#6c8ebf;fontStyle=1" parent="1" vertex="1">
          <mxGeometry x="871" y="298" width="160" height="40" as="geometry" />
        </mxCell>
        <mxCell id="M2-GrQPkXwUdI-zRppql-54" value="&lt;p class=&quot;MsoNormal&quot;&gt;&lt;font face=&quot;Comic Sans MS&quot;&gt;&lt;span style=&quot;font-size: 14px;&quot;&gt;I want&amp;nbsp;&lt;/span&gt;&lt;/font&gt;&lt;span style=&quot;background-color: initial; font-family: 宋体;&quot;&gt;&lt;font style=&quot;font-size: 8px;&quot;&gt;··&lt;/font&gt;&lt;/span&gt;&lt;span style=&quot;background-color: initial; font-family: 宋体; font-size: 8px;&quot;&gt;···&lt;/span&gt;&lt;span style=&quot;background-color: initial; font-size: 8px; font-family: 宋体;&quot;&gt;·&lt;/span&gt;&lt;/p&gt;" style="rounded=1;whiteSpace=wrap;html=1;fillColor=#fff2cc;strokeColor=#d6b656;fontStyle=1" parent="1" vertex="1">
          <mxGeometry x="1061" y="298" width="160" height="40" as="geometry" />
        </mxCell>
        <mxCell id="M2-GrQPkXwUdI-zRppql-55" value="&lt;p class=&quot;MsoNormal&quot;&gt;&lt;span style=&quot;font-size: 10.5pt;&quot;&gt;&lt;font face=&quot;Comic Sans MS&quot;&gt;So that&amp;nbsp;&lt;/font&gt;&lt;/span&gt;&lt;span style=&quot;mso-spacerun:&#39;yes&#39;;font-family:Calibri;mso-fareast-font-family:宋体;&lt;br/&gt;mso-bidi-font-family:&#39;Times New Roman&#39;;font-size:10.5000pt;mso-font-kerning:1.0000pt;&quot;&gt;&lt;/span&gt;&lt;span style=&quot;background-color: initial; font-family: 宋体;&quot;&gt;&lt;font style=&quot;font-size: 8px;&quot;&gt;··&lt;/font&gt;&lt;/span&gt;&lt;span style=&quot;background-color: initial; font-family: 宋体; font-size: 8px;&quot;&gt;···&lt;/span&gt;&lt;span style=&quot;background-color: initial; font-size: 8px; font-family: 宋体;&quot;&gt;·&lt;/span&gt;&lt;/p&gt;" style="rounded=1;whiteSpace=wrap;html=1;fillColor=#d5e8d4;strokeColor=#82b366;fontStyle=1" parent="1" vertex="1">
          <mxGeometry x="1252" y="298" width="157" height="40" as="geometry" />
        </mxCell>
        <mxCell id="-6ipvQbv79SMLH3-SUa8-1" value="" style="endArrow=none;html=1;rounded=0;" edge="1" parent="1">
          <mxGeometry width="50" height="50" relative="1" as="geometry">
            <mxPoint x="860" y="260" as="sourcePoint" />
            <mxPoint x="1420" y="260" as="targetPoint" />
          </mxGeometry>
        </mxCell>
        <mxCell id="-6ipvQbv79SMLH3-SUa8-2" value="" style="endArrow=none;html=1;rounded=0;" edge="1" parent="1">
          <mxGeometry width="50" height="50" relative="1" as="geometry">
            <mxPoint x="860" y="990" as="sourcePoint" />
            <mxPoint x="1420" y="990" as="targetPoint" />
          </mxGeometry>
        </mxCell>
        <mxCell id="-6ipvQbv79SMLH3-SUa8-3" value="" style="endArrow=none;html=1;rounded=0;" edge="1" parent="1">
          <mxGeometry width="50" height="50" relative="1" as="geometry">
            <mxPoint x="860" y="260" as="sourcePoint" />
            <mxPoint x="860" y="990" as="targetPoint" />
          </mxGeometry>
        </mxCell>
        <mxCell id="-6ipvQbv79SMLH3-SUa8-4" value="" style="endArrow=none;html=1;rounded=0;" edge="1" parent="1">
          <mxGeometry width="50" height="50" relative="1" as="geometry">
            <mxPoint x="1420" y="990" as="sourcePoint" />
            <mxPoint x="1420" y="260" as="targetPoint" />
          </mxGeometry>
        </mxCell>
      </root>
    </mxGraphModel>
  </diagram>
</mxfile>
